<svg height="13" viewBox="0 0 7 13" width="7" xmlns="http://www.w3.org/2000/svg"><path d="m.64342469 12.25c-.16760847 0-.33457353-.0589166-.46100372-.1761665-.24771309-.2309997-.24256581-.6002494.0119031-.8251241l5.32004079-4.69874514c.12803871-.11345821.19881388-.26424972.19881388-.42466622 0-.16070817-.07077517-.31149968-.19881388-.42495789l-5.32004079-4.69903678c-.25446891-.22487477-.25961619-.59412438-.0119031-.82512414.2480348-.2307081.65531373-.23537476.91010434-.01079166l5.31971908 4.69932845c.37896886.33483298.58775561.78224918.58775561 1.26058202 0 .47804117-.20878675.92545737-.58775561 1.26029035l-5.31971908 4.69903681c-.12514337.1105415-.28728285.1653748-.44910062.1653748" fill="#2c2c2c" fill-rule="evenodd"/></svg>