<svg height="14" viewBox="0 0 8 14" width="8" xmlns="http://www.w3.org/2000/svg"><path d="m.7353425 14c-.19155254 0-.38236975-.0673333-.52686139-.2013331-.28310068-.2639997-.27721807-.6859993.01360354-.942999l6.08004661-5.36999446c.14632997-.12966653.22721587-.30199968.22721587-.48533282 0-.18366648-.0808859-.35599963-.22721587-.48566617l-6.08004661-5.37032774c-.29082161-.25699973-.29670422-.6789993-.01360354-.94299902.28346834-.26366639.74892997-.26899972 1.04011924-.01233332l6.07967895 5.37066108c.43310727.38266627.6717207.89399907.6717207 1.44066517 0 .54633276-.23861343 1.05766556-.6717207 1.44033183l-6.07967895 5.37032775c-.14302099.1263332-.32832325.1889998-.51325785.1889998" fill="#fff" fill-rule="evenodd"/></svg>