<svg height="40" viewBox="0 0 184 40" width="184" xmlns="http://www.w3.org/2000/svg"><g fill="#ff5f32" fill-rule="evenodd" transform="translate(0 3)"><path d="m2.43805022 9.79661756c2.10184854-.30450919 3.53355554.14921145 4.73482289 1.51694934.59128711.6732271 1.05916866 1.9668962 1.08659876 3.5267617.02829728 1.6091795-.51511362 3.2127197-1.29780665 4.9348853-.78269304 1.7221656-1.45926209 4.7502996-1.24484048 7.1698669.16661237 1.8800803.90707351 3.1829413 2.02110687 3.8122964 1.69849159.9595352 3.00811839 1.3904499 3.92888049 1.2927443-1.2459156-2.4531701-1.76865164-4.7269798-1.568208-6.8214292.133498-1.3949306.5062246-3.0141373 1.2529215-4.2957667.2496317-.4284676.6954468-.928683 1.3374451-1.5006464-.1542939-3.0486461.316885-6.1409527 1.4135368-9.2769201 1.6449776-4.70395099 2.6824039-5.86810631 4.3815204-6.99677292 1.4927249-1.5923373 2.7996844-2.75368036 3.333943-3.04530013.5342586-.29161976.6243963.04039377.4075685.31389604-.3413444.47641365-.537539 1.37542486-.6000395 1.71564967-.0625006.3402248-.286959.89052941.3832118 1.31019466.6701708.41966524 1.2379424.74279987 1.4235655 1.07697609.185623.33417622.4512609 1.34612187.77711 1.70836306.3258492.36224119.8220677.71284795.9576981.82510784.1356304.11225988.6133604.40918418.0840096 1.19526371-.5293508.78607952-.5893547.91326829-.8882459 1.26100917-.2988912.34774087-1.0606421.46083933-1.6110099.46083933-.5503679 0-1.5050719.17011528-1.3735889 1.16972808s.5369087 1.2491903.8472892 1.6186691c.3103806.3694787 1.6772098 1.2974514 1.6772098 3.3041749s-.1056474 3.1738554.1476864 3.9372665c.2533338.763411.7033666 1.1816921 1.2006593 1.7132083.4972927.5315161.8134572 1.0946909.7377332 2.6259963-.0388136.7848964-.2053523 2.6530126-.6097837 4.4878757-.3846002 1.7448907-.9972206 3.4632212-1.4315494 4.0582797-.8910531 1.2208002-1.4224418 1.1009904-2.2836343 1.1009904-.5741284 0-3.9419981 0-10.1036092 0-2.21881472.0113372-4.05538086-.5731928-5.50969845-1.7535899-2.1814764-1.7705958-2.37957317-3.559093-2.48973207-5.5994426-.11015891-2.0403497.35197394-5.1145036 1.80172912-8.4344808 1.44975519-3.3199772.49771556-5.5384362-.67739891-6.1656341-1.17511448-.6271978-2.57944411-.4918152-2.76983668.4353373-.19039257.9271526-1.50305979.7937774-1.83004648 0-.32698668-.7937773.25093366-2.3778378 2.35278219-2.68234694z"/><path d="m45.9173906 34c.9064281 0 1.7702009-.0890897 2.5913182-.2672692.8211172-.1781795 1.604911-.4454487 2.3513813-.8018076v-4.8702389c-.8104535.6929202-1.5969132 1.2002367-2.3593792 1.5219497-.7624661.3217129-1.5489258.4825694-2.3593792.4825694-1.7275455 0-3.0312025-.6360018-3.910971-1.9080052-.8797685-1.2720035-1.3196528-3.1552615-1.3196528-5.6497741 0-2.5044114.4398843-4.3926188 1.3196528-5.6646223.8797685-1.2720034 2.1834255-1.9080052 3.910971-1.9080052.8104534 0 1.5969131.1608565 2.3593792.4825694.762466.321713 1.5489257.8290295 2.3593792 1.5219497v-4.8702389c-.7251426-.3563589-1.5036044-.6236281-2.3353856-.8018076-.8317811-.1781795-1.7008858-.2672692-2.6073139-.2672692-3.220486 0-5.6785059.9849365-7.3740598 2.9548096-1.6955539 1.969873-2.5433308 4.8207445-2.5433308 8.5526145 0 3.7219712.8477769 6.5678933 2.5433308 8.5377663 1.6955539 1.9698731 4.1535738 2.9548096 7.3740598 2.9548096zm13.5841905-.4306004 1.4396212-5.4790187h6.3183375l1.4716128 5.4790187h4.7187584l-6.4463038-22.1684958h-5.7744807l-6.4463039 22.1684958zm6.8461986-9.087153h-4.4628257l2.2234149-9.0723047zm19.7646428 9.087153v-18.3376372h6.0624048v-3.8308586h-16.8435681v3.8308586h6.0624048v18.3376372zm27.1109055 0c3.124512 0 5.379918-.4800947 6.76622-1.440284 1.386302-.9601894 2.079453-2.5093609 2.079453-4.6475146 0-1.7421992-.461212-3.098343-1.383636-4.0684312s-2.295396-1.5392727-4.118916-1.7075533c1.524932-.1286851 2.681961-.5939315 3.471086-1.3957392.789126-.8018076 1.183689-1.9154293 1.183689-3.340865 0-1.8609856-.669157-3.2591995-2.007472-4.1946417-1.338314-.9354423-3.335122-1.4031634-5.990424-1.4031634h-7.693975v22.1981924zm0-13.556488h-3.135175v-5.1523564h3.135175c1.173025 0 2.018136.2054013 2.535333.616204.517198.4108027.775796 1.0715515.775796 1.9822466s-.253267 1.5640198-.7598 1.9599742-1.356976.5939316-2.551329.5939316zm0 10.0522918h-3.135175v-6.5629439h3.135175c1.450285 0 2.490012.2623198 3.11918.7869594.629167.5246395.943751 1.3858403.943751 2.5836023 0 1.1779643-.301254 2.004519-.903762 2.4796643-.602508.4751452-1.655564.7127179-3.159169.7127179zm28.556251 3.5041962v-3.8605552h-10.157327v-5.8056811h9.19758v-3.8605552h-9.19758v-4.7811491h10.157327v-3.8605552h-14.876085v22.1684958zm21.534099 0v-3.8605552h-10.093344v-18.3079406h-4.718759v22.1684958zm20.686322 0v-3.8605552h-10.093344v-18.3079406h-4.718759v22.1684958z" fill-rule="nonzero"/></g></svg>